<?xml version="1.0" encoding="utf-8"?>
<svg width="24" height="18.667" viewBox="0 0 24 18.667" fill="none" xmlns="http://www.w3.org/2000/svg">
  <path d="M1.33333 0C0.59696 0 0 0.59696 0 1.33333C0 2.06971 0.59696 2.66667 1.33333 2.66667C1.33333 2.66667 22.6667 2.66667 22.6667 2.66667C23.4031 2.66667 24 2.06971 24 1.33333C24 0.59696 23.4031 0 22.6667 0C22.6667 0 1.33333 0 1.33333 0ZM0 9.33334C0 8.59693 0.59696 8 1.33333 8C1.33333 8 22.6667 8 22.6667 8C23.4031 8 24 8.59693 24 9.33334C24 10.0697 23.4031 10.6667 22.6667 10.6667C22.6667 10.6667 1.33333 10.6667 1.33333 10.6667C0.59696 10.6667 0 10.0697 0 9.33334ZM0 17.3333C0 16.5969 0.59696 16 1.33333 16C1.33333 16 22.6667 16 22.6667 16C23.4031 16 24 16.5969 24 17.3333C24 18.0697 23.4031 18.6667 22.6667 18.6667C22.6667 18.6667 1.33333 18.6667 1.33333 18.6667C0.59696 18.6667 0 18.0697 0 17.3333Z" fill="#000000" fill-rule="evenodd" />
</svg>