<?xml version="1.0" encoding="utf-8"?>
<svg width="24" height="24" viewBox="0 0 24 24" fill="none" xmlns="http://www.w3.org/2000/svg">
  <g>
    <g transform="translate(1.25 1.25)">
      <path d="M12 6C12 9.3137 9.3137 12 6 12C2.68629 12 0 9.3137 0 6C0 2.68629 2.68629 0 6 0C9.3137 0 12 2.68629 12 6Z" fill="#000000" fill-rule="evenodd" transform="translate(4.75 4.75)" />
      <path d="M10.75 0C11.1642 0 11.5 0.33579 11.5 0.75C11.5 0.75 11.5 1.75 11.5 1.75C11.5 2.16421 11.1642 2.5 10.75 2.5C10.3358 2.5 10 2.16421 10 1.75C10 1.75 10 0.75 10 0.75C10 0.33579 10.3358 0 10.75 0ZM3.14861 3.14861C3.4415 2.85572 3.91638 2.85572 4.20927 3.14861C4.20927 3.14861 4.60211 3.54145 4.60211 3.54145C4.895 3.83434 4.895 4.30921 4.60211 4.60211C4.30921 4.895 3.83434 4.895 3.54145 4.60211C3.54145 4.60211 3.14861 4.20927 3.14861 4.20927C2.85572 3.91638 2.85572 3.4415 3.14861 3.14861ZM18.3511 3.14887C18.644 3.44176 18.644 3.91664 18.3511 4.20953C18.3511 4.20953 17.9583 4.60237 17.9583 4.60237C17.6654 4.89526 17.1905 4.89526 16.8976 4.60237C16.6047 4.30947 16.6047 3.8346 16.8976 3.54171C16.8976 3.54171 17.2905 3.14887 17.2905 3.14887C17.5834 2.85598 18.0582 2.85598 18.3511 3.14887ZM0 10.75C0 10.3358 0.33579 10 0.75 10C0.75 10 1.75 10 1.75 10C2.16421 10 2.5 10.3358 2.5 10.75C2.5 11.1642 2.16421 11.5 1.75 11.5C1.75 11.5 0.75 11.5 0.75 11.5C0.33579 11.5 0 11.1642 0 10.75ZM19 10.75C19 10.3358 19.3358 10 19.75 10C19.75 10 20.75 10 20.75 10C21.1642 10 21.5 10.3358 21.5 10.75C21.5 11.1642 21.1642 11.5 20.75 11.5C20.75 11.5 19.75 11.5 19.75 11.5C19.3358 11.5 19 11.1642 19 10.75ZM16.8976 16.8976C17.1905 16.6047 17.6654 16.6047 17.9583 16.8976C17.9583 16.8976 18.3511 17.2905 18.3511 17.2905C18.644 17.5834 18.644 18.0582 18.3511 18.3511C18.0582 18.644 17.5834 18.644 17.2905 18.3511C17.2905 18.3511 16.8976 17.9583 16.8976 17.9583C16.6047 17.6654 16.6047 17.1905 16.8976 16.8976ZM4.60211 16.8979C4.895 17.1908 4.895 17.6657 4.60211 17.9586C4.60211 17.9586 4.20927 18.3514 4.20927 18.3514C3.91638 18.6443 3.4415 18.6443 3.14861 18.3514C2.85572 18.0585 2.85572 17.5836 3.14861 17.2907C3.14861 17.2907 3.54145 16.8979 3.54145 16.8979C3.83434 16.605 4.30921 16.605 4.60211 16.8979ZM10.75 19C11.1642 19 11.5 19.3358 11.5 19.75C11.5 19.75 11.5 20.75 11.5 20.75C11.5 21.1642 11.1642 21.5 10.75 21.5C10.3358 21.5 10 21.1642 10 20.75C10 20.75 10 19.75 10 19.75C10 19.3358 10.3358 19 10.75 19Z" fill="#000000" fill-rule="evenodd" />
    </g>
  </g>
</svg>